<?xml version="1.0" encoding="utf-8"?>
<!-- Generator: Adobe Illustrator 23.1.0, SVG Export Plug-In . SVG Version: 6.00 Build 0)  -->
<svg version="1.1" id="Слой_1" xmlns="http://www.w3.org/2000/svg" xmlns:xlink="http://www.w3.org/1999/xlink" x="0px" y="0px"
	 viewBox="0 0 474.2 83.7" style="enable-background:new 0 0 474.2 83.7;" xml:space="preserve">
<style type="text/css">
	.st0{fill:#F83F4F;}
</style>
<path class="st0" d="M17.6,26.7c11.3,0,17.9,2.5,17.9,11.9c0,10.2-7.9,12.8-19.5,12.8h-0.5v16.1h7.5v1.1H0v-1.1h3.9V27.8H0v-1.1
	H17.6z M15.6,50.3h1.3c5,0,6.4-3.5,6.4-10.4V37c0-6.8-1.4-9.2-6-9.2h-1.6V50.3z M52.2,40.1v27.5h3.4v1.1H37.7v-1.1H41V41.2h-3.5
	v-1.1H52.2z M46.8,24.8c3.7,0,5.9,1.9,5.9,5.5c0,3.2-1.7,5.6-6.1,5.6c-4.9,0-6-3.1-6-5.6C40.7,27.4,42.3,24.8,46.8,24.8z M68.6,53
	v3.1c0,7.7,1.4,11.1,6.1,11.1c5.5,0,7.8-4.6,8.5-7.9l1.1,0.1c-0.8,3.7-2.8,9.8-12.8,9.8c-9.2,0-14.4-5.2-14.4-14.5
	c0-10.1,6.1-15.2,16-15.2c7.3,0,11,3.1,11,7.6c0,3.7-2,5.6-5,5.6c-3.1,0-5.3-1.6-5.3-5c0-0.5,0.1-1.3,0.3-2.2h2
	c0.3-0.8,0.4-1.6,0.4-2.2c0-2-1.2-2.9-2.9-2.9C70.1,40.6,68.6,44.1,68.6,53z M117.6,26.7l0.6,12.5h-1.1C114.2,30.5,111,28,103.3,28
	h-1.7v19.5h2.7c3.9,0,6.5-3.1,7.4-7.9h0.9v17.8h-1c-1.3-6.1-3.4-8.3-7.3-8.3h-2.7v18.3h7.4v1.3H86.4v-1.3h3.5V28h-3.5v-1.3H117.6z
	 M135.7,40.1v27.5h3.4v1.1h-17.8v-1.1h3.3V41.2H121v-1.1H135.7z M130.3,24.8c3.7,0,5.9,1.9,5.9,5.5c0,3.2-1.7,5.6-6.1,5.6
	c-4.9,0-6-3.1-6-5.6C124.2,27.4,125.8,24.8,130.3,24.8z M166,36c0.2-1-0.2-1.9-1.4-1.9c-0.8,0-2.6,0.2-2.6,4c0,1,0.1,2.2,0.4,3.6
	c2.3,1.6,4.6,3.7,4.6,7.6c0,6.8-4.9,10.3-12.2,10.3c-1.7,0-3.6-0.2-4.9-0.5c-2.1,1.3-2.6,2-2.6,2.5s0.7,0.8,3.8,0.8h6.1
	c6.8,0,13.6,1.6,13.6,9.8c0,6.7-4.8,11.5-16.9,11.5c-10.4,0-14.8-2.5-14.8-6.4c0-3,2.5-4.2,4.6-4.8l3.6,1.6
	c-0.4,1.3-0.5,2.3-0.5,3.3c0,2.5,1.3,5.2,7.7,5.2c6.4,0,9.7-2.6,9.7-6.4c0-2.9-1.3-4-7.6-4h-5.8c-7.1,0-9.1-2.9-9.1-5.6
	c0-3.4,2.2-5.1,6.8-7.9c-4.7-1.3-7-4.1-7-9.1c0-5.6,3.9-10,13-10c2.9,0,4.7,0.4,6.7,1.5c-0.2-1.1-0.4-2-0.4-2.9
	c0-4.9,3.4-6.4,5.9-6.4c2.8,0,4.9,1.6,4.9,4.4c0,2.8-1.8,4-3.8,4c-1.8,0-3.4-1.1-3.5-3.1L166,36z M151.6,51.4c0,5.6,1,6.9,2.8,6.9
	c1.6,0,2.6-1,2.6-7.2v-2.9c0-6.7-1-7.6-2.6-7.6c-1.7,0-2.9,1.1-2.9,7.6V51.4z M186.1,23.7v22c1-3,3-6.1,8.9-6.1
	c5.6,0,9.3,2.8,9.3,10v18.1h3.4v1.1h-17v-1.1h2.5V48.1c0-5.1-0.7-5.7-2.2-5.7c-2.5,0-4.9,3.8-4.9,8.6v16.6h2.6v1.1h-17v-1.1h3.3
	V24.7h-3.3v-1.1H186.1z M211.6,41.2h-3.3v-1.1h3.3v-7.7l11.2-2.8v10.5h7.8v1.1h-7.8v20.2c0,3.5,0.5,5.5,2.6,5.5
	c2.9,0,4.7-2.6,5.2-6.7l1,0.1c-0.5,4.7-2.5,9-9.8,9c-5.9,0-10.2-1.7-10.2-9.2V41.2z M359.7,45.1v4.7c0,11,3.2,18.2,9.7,18.2
	c4.9,0,8.8-5,12.1-12.8h1.1l-0.4,13.4h-0.7c-0.4-0.8-0.7-1.2-1.6-1.2c-2,0-5.3,1.9-11.9,1.9c-12.7,0-20.5-6.7-20.5-21.1
	c0-14.5,8.4-22.2,20.7-22.2c6.2,0,9.1,1.9,11.2,1.9c1,0,1.2-0.4,1.6-1.2h0.7l0.5,13h-1.1c-3.3-7.4-6.9-12.5-12.1-12.5
	C363,27.2,359.7,32.7,359.7,45.1z M402.4,39.5c10.1,0,14.9,4.7,14.9,14.5c0,9.8-4.6,15.3-15.2,15.3c-10.1,0-15.2-5.4-15.2-14.8
	C386.9,44.7,392.8,39.5,402.4,39.5z M405.8,51.7c0-6.5-0.2-11.2-3.5-11.2c-3.7,0-3.8,4.7-3.8,11.5v4.7c0,7,0.1,11.5,3.8,11.5
	c3.4,0,3.6-3.5,3.6-11.3V51.7z M433.5,40.1v27.5h3.4v1.1H419v-1.1h3.3V41.2h-3.5v-1.1H433.5z M428.1,24.8c3.7,0,5.9,1.9,5.9,5.5
	c0,3.2-1.7,5.6-6.1,5.6c-4.9,0-6-3.1-6-5.6C421.9,27.4,423.6,24.8,428.1,24.8z M452.6,40.1v5.5c1-3,3-6.1,8.9-6.1
	c5.6,0,9.3,2.8,9.3,10v18.1h3.4v1.1h-17v-1.1h2.5V48.1c0-5.1-0.7-5.7-2.2-5.7c-2.5,0-4.9,3.8-4.9,8.6v16.6h2.6v1.1h-17v-1.1h3.3
	V41.2h-3.3v-1.1H452.6z M298.2,28.3c0.4,0,0.9,0,1.4,0.1c3.1,0.3,6.6,2.8,7,7.6v1.6c-0.4,4.6-4.3,10.3-15.6,17.4c0,0,0,0,0,0
	c-11.3-7.1-15.2-12.8-15.6-17.4v-1.6c0.4-4.8,4-7.3,7-7.6c0.5,0,1-0.1,1.4-0.1c3.5,0,5.2,1.4,7.2,3.4
	C293,29.7,294.7,28.3,298.2,28.3 M339,40h-7.4c-0.3-22.1-18.4-40-40.6-40s-40.3,17.9-40.6,40h-7.4v1.1h7.4c0.3,22.1,18.4,40,40.6,40
	s40.3-17.9,40.6-40h7.4V40z M291.1,70.2c-16.3,0-29.6-13.3-29.6-29.6S274.7,11,291.1,11s29.6,13.3,29.6,29.6S307.4,70.2,291.1,70.2z
	"/>
</svg>
